<svg width="391" height="383" viewBox="0 0 391 383" fill="none" xmlns="http://www.w3.org/2000/svg">
<rect x="22" y="189" width="345" height="113" rx="54.5" fill="#AD8B8B" fill-opacity="0.81" stroke="black" stroke-width="6"/>
<rect x="67.5" y="109.5" width="253" height="79" rx="39.5" fill="#AD8B8B" fill-opacity="0.81" stroke="black" stroke-width="7"/>
<path d="M135.716 109H250.589C266.409 49.3097 198.999 10.312 204.502 16.679C210.005 23.046 205.878 52.4932 180.427 56.4725C137.504 53.2891 132.735 90.1644 135.716 109Z" fill="#AD8B8B" fill-opacity="0.81" stroke="black" stroke-width="6"/>
<ellipse cx="135" cy="231.5" rx="18" ry="17.5" fill="black"/>
<ellipse cx="253" cy="231.5" rx="18" ry="17.5" fill="black"/>
<path d="M171 239C171.767 253.45 194 251.168 194 239" stroke="black" stroke-width="9" stroke-linecap="round" stroke-linejoin="round"/>
<path d="M194 239C194.767 253.45 217 251.168 217 239" stroke="black" stroke-width="9" stroke-linecap="round" stroke-linejoin="round"/>
<path d="M83.2 370.704L86.08 325.648L89.152 322.896H120.704L123.776 325.584L126.016 348.048L123.136 351.44L94.016 353.296L93.632 347.28L119.68 345.616L118.016 328.848H91.904L89.216 371.088L83.2 370.704ZM135.219 366.544L132.403 363.28L133.939 341.328L136.819 338.576L158.067 337.68L161.203 340.624L161.843 364.816L158.643 367.888L135.219 366.544ZM155.763 361.68L155.315 343.824L139.763 344.464L138.675 360.72L155.763 361.68ZM172.344 366.544L169.528 363.28L171.064 341.328L173.944 338.576L195.192 337.68L198.328 340.624L198.968 364.816L195.768 367.888L172.344 366.544ZM192.888 361.68L192.44 343.824L176.888 344.464L175.8 360.72L192.888 361.68ZM211.773 333.712L215.677 324.816L212.733 323.024L215.421 318.608L220.349 321.616L221.309 324.816L216.509 335.824L211.773 333.712ZM264.888 366.032L267.832 343.952L271.288 341.392L290.104 344.4L289.08 330.064L295.16 329.68L297.4 363.344L294.712 366.544L268.152 369.424L264.888 366.032ZM271.352 363.024L291.192 360.912L290.488 350.544L273.4 347.792L271.352 363.024Z" fill="black"/>
</svg>
