<svg width="145" height="144" viewBox="0 0 145 144" fill="none" xmlns="http://www.w3.org/2000/svg">
<rect width="145" height="144" fill="white"/>
<path d="M62 43C62 52.9892 54.1176 61 44.5 61C34.8824 61 27 52.9892 27 43C27 33.0108 34.8824 25 44.5 25C54.1176 25 62 33.0108 62 43Z" fill="#AD8B8B" stroke="#827373" stroke-width="4"/>
<path d="M90 100C90 109.989 82.1176 118 72.5 118C62.8824 118 55 109.989 55 100C55 90.0108 62.8824 82 72.5 82C82.1176 82 90 90.0108 90 100Z" fill="#AD8B8B" stroke="#827373" stroke-width="4"/>
<path d="M117 52C117 61.9892 109.118 70 99.5 70C89.8824 70 82 61.9892 82 52C82 42.0108 89.8824 34 99.5 34C109.118 34 117 42.0108 117 52Z" fill="#AD8B8B" stroke="#827373" stroke-width="4"/>
<path d="M45.2 42.86C50.6142 42.86 55.1014 44.12 60.32 44.12" stroke="#827373" stroke-width="4" stroke-linecap="round" stroke-linejoin="round"/>
<path d="M71.2 98.86C76.6142 98.86 81.1014 100.12 86.32 100.12" stroke="#827373" stroke-width="4" stroke-linecap="round" stroke-linejoin="round"/>
</svg>