<svg width="145" height="144" viewBox="0 0 145 144" fill="none" xmlns="http://www.w3.org/2000/svg">
<rect width="145" height="144" fill="white"/>
<path d="M54.8366 72.9456C54.8366 65.6769 54.1892 58.753 54.0899 51.511C53.3445 49.7133 54.2194 43.7601 54.7522 42.6946C55.6408 40.9173 56.3233 39.124 57.3048 37.3574C58.1543 35.8282 59.3013 34.6914 60.1527 33.2016C60.7947 32.078 63.6205 30.0936 64.7093 29.4888C67.2618 28.0707 69.8133 28.2878 72.6834 28.7293C75.1789 29.1133 77.7761 29.3498 79.7082 31.2819C80.5924 32.1661 81.6242 32.6043 82.2608 33.7501C83.0459 35.1633 83.6969 36.6553 84.4547 38.1168C89.0169 46.9153 87.8722 57.4756 87.8722 67.1654C87.8722 73.2091 86.733 79.2307 86.733 85.3708V94.5052C86.733 96.572 87.2798 99.4454 86.4377 101.34C85.8613 102.637 85.5939 105.786 85.5939 107.226C85.5939 108.84 85.1006 111.271 84.3703 112.732C82.1595 117.153 77.2017 119.002 72.3248 117.478C67.2646 115.897 62.6706 114.326 59.0135 110.453C56.4044 107.691 54.4569 102.811 54.4569 99.0619C54.4569 90.2913 54.8366 81.6519 54.8366 72.9456Z" fill="#AD8B8B"/>
<path d="M54.0771 49.6983C54.0771 57.6044 54.8366 65.0728 54.8366 72.9456C54.8366 81.6519 54.4569 90.2913 54.4569 99.0619C54.4569 102.811 56.4044 107.691 59.0135 110.453C62.6706 114.326 67.2646 115.897 72.3248 117.478C77.2017 119.002 82.1595 117.153 84.3703 112.732C85.1006 111.271 85.5939 108.84 85.5939 107.226C85.5939 105.786 85.8613 102.637 86.4377 101.34C87.2798 99.4454 86.733 96.572 86.733 94.5052C86.733 91.4604 86.733 88.4156 86.733 85.3708C86.733 79.2307 87.8722 73.2091 87.8722 67.1654C87.8722 57.4756 89.0169 46.9153 84.4547 38.1168C83.6969 36.6553 83.0459 35.1633 82.2608 33.7501C81.6242 32.6043 80.5924 32.1661 79.7082 31.2819C77.7761 29.3498 75.1789 29.1133 72.6834 28.7293C69.8133 28.2878 67.2618 28.0707 64.7093 29.4888C63.6205 30.0936 60.7947 32.078 60.1527 33.2016C59.3013 34.6914 58.1543 35.8282 57.3048 37.3574C56.3233 39.124 55.6408 40.9173 54.7522 42.6946C54.1517 43.8956 53.1165 51.3064 54.4569 51.9766" stroke="#827373" stroke-width="3.38899" stroke-linecap="round" stroke-linejoin="round"/>
</svg>
