<svg width="145" height="144" viewBox="0 0 145 144" fill="none" xmlns="http://www.w3.org/2000/svg">
<rect width="145" height="144" fill="white"/>
<path d="M18.6385 35.2738C26.4907 29.8377 32.3506 27.2496 41.8202 27.0172C44.0117 27.2037 45.7063 28.8386 48.3119 28.8386C50.3974 28.8386 52.6287 30.1377 54.696 30.7283C58.6221 31.8501 61.8022 39.4307 65.3191 39.8704C71.0263 40.5838 63.9563 49.8681 62.1015 51.3107C58.2264 54.3247 52.2007 56.418 47.3415 56.418C44.8008 56.418 40.9369 57.1606 38.8634 55.2944C36.8346 53.4685 34.7764 51.3215 32.2239 50.1871C27.4841 48.0805 21.3106 53.3871 17.0552 49.9828C11.9557 45.9032 13.7616 38.6501 18.6385 35.2738Z" fill="#AD8B8B"/>
<path d="M43.2556 27C32.9267 27 26.8799 29.5682 18.6385 35.2738C13.7616 38.6501 11.9557 45.9032 17.0552 49.9828C21.3106 53.3871 27.4841 48.0805 32.2239 50.1871C34.7764 51.3215 36.8346 53.4685 38.8634 55.2944C40.9369 57.1606 44.8008 56.418 47.3415 56.418C52.2007 56.418 58.2264 54.3247 62.1015 51.3107C63.9563 49.8681 71.0263 40.5838 65.3191 39.8704C61.8022 39.4307 58.6221 31.8501 54.696 30.7283C52.6287 30.1377 50.3974 28.8386 48.3119 28.8386C45.5488 28.8386 43.8101 27 41.417 27" stroke="#827373" stroke-width="3.38899" stroke-linecap="round" stroke-linejoin="round"/>
<path d="M77.6385 58.2738C85.4907 52.8377 91.3506 50.2496 100.82 50.0172C103.012 50.2037 104.706 51.8386 107.312 51.8386C109.397 51.8386 111.629 53.1377 113.696 53.7283C117.622 54.8501 120.802 62.4307 124.319 62.8704C130.026 63.5838 122.956 72.8681 121.102 74.3107C117.226 77.3247 111.201 79.418 106.341 79.418C103.801 79.418 99.9369 80.1606 97.8634 78.2944C95.8346 76.4685 93.7764 74.3215 91.2239 73.1871C86.4841 71.0805 80.3106 76.3871 76.0552 72.9828C70.9557 68.9032 72.7616 61.6501 77.6385 58.2738Z" fill="#AD8B8B"/>
<path d="M102.256 50C91.9267 50 85.8799 52.5682 77.6385 58.2738C72.7616 61.6501 70.9557 68.9032 76.0552 72.9828C80.3106 76.3871 86.4841 71.0805 91.2239 73.1871C93.7764 74.3215 95.8346 76.4685 97.8634 78.2944C99.9369 80.1606 103.801 79.418 106.341 79.418C111.201 79.418 117.226 77.3247 121.102 74.3107C122.956 72.8681 130.026 63.5838 124.319 62.8704C120.802 62.4307 117.622 54.8501 113.696 53.7283C111.629 53.1377 109.397 51.8386 107.312 51.8386C104.549 51.8386 102.81 50 100.417 50" stroke="#827373" stroke-width="3.38899" stroke-linecap="round" stroke-linejoin="round"/>
<path d="M40.6385 98.2738C48.4907 92.8377 54.3506 90.2496 63.8202 90.0172C66.0117 90.2037 67.7063 91.8386 70.3119 91.8386C72.3974 91.8386 74.6287 93.1377 76.696 93.7283C80.6221 94.8501 83.8022 102.431 87.3191 102.87C93.0263 103.584 85.9563 112.868 84.1015 114.311C80.2264 117.325 74.2007 119.418 69.3415 119.418C66.8008 119.418 62.9369 120.161 60.8634 118.294C58.8346 116.468 56.7764 114.322 54.2239 113.187C49.4841 111.08 43.3106 116.387 39.0552 112.983C33.9557 108.903 35.7616 101.65 40.6385 98.2738Z" fill="#AD8B8B"/>
<path d="M65.2556 90C54.9267 90 48.8799 92.5682 40.6385 98.2738C35.7616 101.65 33.9557 108.903 39.0552 112.983C43.3106 116.387 49.4841 111.08 54.2239 113.187C56.7764 114.322 58.8346 116.468 60.8634 118.294C62.9369 120.161 66.8008 119.418 69.3415 119.418C74.2007 119.418 80.2264 117.325 84.1015 114.311C85.9563 112.868 93.0263 103.584 87.3191 102.87C83.8022 102.431 80.6221 94.8501 76.696 93.7283C74.6287 93.1377 72.3974 91.8386 70.3119 91.8386C67.5488 91.8386 65.8101 90 63.417 90" stroke="#827373" stroke-width="3.38899" stroke-linecap="round" stroke-linejoin="round"/>
</svg>
