<svg width="145" height="144" viewBox="0 0 145 144" fill="none" xmlns="http://www.w3.org/2000/svg">
<rect width="145" height="144" fill="white"/>
<path d="M34.4995 72.3378C29.786 69.8901 22.7179 75.4758 19.6571 78.1735C18.9142 77.8754 17.8906 77.6489 16.8699 77.6489C13.6561 77.6489 14.935 80.8448 14.935 82.4936C14.935 84.2809 13 85.3625 13 87.3382C13 89.3785 15.4856 89.0896 16.8699 90.2449C19.8176 92.705 29.6706 91.8598 33.8008 91.8598H54.1716C69.4229 91.8598 84.5692 90.5679 99.5894 90.5679C103.911 90.5679 107.54 89.4216 111.683 89.276C114.268 89.1852 117.625 89.1533 119.907 88.3071C124.745 86.5124 132 88.2394 132 83.1395C132 79.2784 130.262 76.204 125.98 73.9168C122.168 71.8804 115.846 71.217 111.898 69.1081C107.574 66.7987 99.2695 66.6192 94.2683 68.1033C90.217 69.3055 91.2087 68.6218 87.9259 67.9956C85.5321 67.539 83.0757 66.0219 80.7236 66.0219C73.8649 66.0219 70.9235 69.5127 64.2764 69.2516C62.6579 69.1881 59.2924 67.7042 57.9878 67.0267C55.5542 65.7629 52.6545 66.0219 49.7642 66.0219C47.1496 66.0219 42.8815 66.7805 40.5732 67.6368C38.2779 68.4881 37.1095 68.3502 35.682 70.2564C35.4796 70.5267 35.2885 72.7475 34.4995 72.3378Z" fill="#AD8B8B"/>
<path d="M18.8049 78.9408C21.1435 76.7939 29.2705 69.6224 34.4995 72.3378C35.2885 72.7475 35.4796 70.5267 35.682 70.2564C37.1095 68.3502 38.2779 68.4881 40.5732 67.6368C42.8815 66.7805 47.1496 66.0219 49.7642 66.0219C52.6545 66.0219 55.5542 65.7629 57.9878 67.0267C59.2924 67.7042 62.6579 69.1881 64.2764 69.2516C70.9235 69.5127 73.8649 66.0219 80.7236 66.0219C83.0757 66.0219 85.5321 67.539 87.9259 67.9956C91.2087 68.6218 90.217 69.3055 94.2683 68.1033C99.2695 66.6192 107.574 66.7987 111.898 69.1081C115.846 71.217 122.168 71.8804 125.98 73.9168C130.262 76.204 132 79.2784 132 83.1395C132 88.2394 124.745 86.5124 119.907 88.3071C117.625 89.1533 114.268 89.1852 111.683 89.276C107.54 89.4216 103.911 90.5679 99.5894 90.5679C84.5692 90.5679 69.4229 91.8598 54.1716 91.8598C47.3814 91.8598 40.5911 91.8598 33.8008 91.8598C29.6706 91.8598 19.8176 92.705 16.8699 90.2449C15.4856 89.0896 13 89.3785 13 87.3382C13 85.3625 14.935 84.2809 14.935 82.4936C14.935 80.8448 13.6561 77.649 16.8699 77.649C19.8555 77.649 22.8659 79.5868 18.8049 79.5868" stroke="#827373" stroke-width="3.38899" stroke-linecap="round" stroke-linejoin="round"/>
</svg>
