<svg width="145" height="144" viewBox="0 0 145 144" fill="none" xmlns="http://www.w3.org/2000/svg">
<rect width="145" height="144" fill="white"/>
<path d="M56.5308 31.4515C56.5308 33.2924 57.168 34.9522 57.3538 36.736C56.6943 36.0609 55.8856 35.6715 55.2208 35.0417C53.5069 33.418 50.7005 34.9395 49.0955 35.9272C46.004 37.8296 46.2249 41.9258 46.2694 45.0848C46.2964 47.0035 46.7686 48.4871 47.7977 50.0578C48.4642 51.0751 49.5855 52.2262 50.5 53C51.5497 53.8882 52.0369 54.7173 53.365 55.237C54.9517 55.8579 54.1489 55.7057 53.0375 55.9526C51.3632 56.3247 50.1113 56.8498 48.6225 57.7478L48.5962 57.7636C47.2303 58.5874 44.7127 60.1058 44.5349 61.8839C43.5 63.0847 43.057 65.7849 43.5 68C43.9134 70.067 46.159 72.9083 47.9675 74.0738C49.1808 74.8557 50.4373 75.5233 51.679 76.2571C52.1282 76.5225 54.2614 77.8339 53.6804 77.8339C50.1237 77.8339 47.8315 81.0341 46.7303 84.032C45.8922 86.3134 46.1314 89.0595 46.706 91.358C47.0314 92.6597 47.2845 93.3364 47.9675 94.5C48.7616 95.853 48.4908 95.7067 50.5 97.5C51.6402 97.3302 53.5947 99.23 54.5537 99.23C55.4089 99.23 55.3791 99.0717 54.8933 99.5574C54.4865 99.9643 54.2977 100.471 54.02 100.964C53.2283 102.372 52.7934 103.147 52.6494 104.858C52.3019 108.984 51.8602 111.708 54.5537 115C54.8933 117.5 58.3772 117.539 60 119C61.2547 120.129 69.9953 119.417 71.5 119C74 118.308 74.2028 118.466 77.1627 113.834C78.2036 112.204 78.6246 110.287 79.1398 108.46C79.5668 106.946 79.6735 105.521 79.6735 103.96C79.6735 103.84 79.5928 102.982 79.722 103.111C80.5073 103.897 81.4313 104.141 82.5 104.385C83.5405 104.623 84.9224 105.704 86.4416 105.78C87.9608 105.856 88.303 104.901 89.6801 104.385C92.2869 103.407 94.6192 101.047 95.9995 98.6235C97.2477 96.4321 97.9009 93.8778 97.1396 91.3702C96.5533 89.4387 95.7739 88.35 94.5318 86.7974C93.7076 85.7671 92.6678 84.3963 91.4267 83.8379C90.4964 83.4192 89.157 82.7237 88.1882 82.4673C87.9418 82.402 86.2705 82.4622 87.0966 82.4188C87.5125 82.3969 88.5826 82.2967 88.9524 82.0913C90.2296 81.3817 91.4883 80.6974 92.6518 79.811C93.6268 79.0681 94.0598 77.9043 94.5197 76.7908C95.2918 74.9215 96.659 74.556 95.9995 72.5C97.1065 71.9343 95.7259 69.0819 95.393 68C95.152 67.2168 93.6357 65.7963 93.0885 65.1709C92.4637 64.4569 91.7683 63.8147 91.1356 63.0847C90.148 61.945 90.1928 62.0972 91.3661 61.8839C92.4753 61.6822 93.9847 61.0304 94.6895 60.1494C97.847 56.2025 98.2746 51.4581 97.4671 46.6131C96.9882 43.7392 95.5273 41.7425 93.2947 39.942C91.6035 38.5782 89.0505 36.6413 86.8055 36.57C85.5757 36.531 85.5683 37.291 85.5683 36.0849C85.5683 35.3105 85.652 34.4865 85.5562 33.7196C84.9295 28.7067 81.6543 24.7073 77.757 21.7723C74.9587 19.6649 72.3738 18.7703 68.8784 18.8855C65.7645 18.9882 62.3224 21.1391 60.2666 23.3491C58.0548 25.7267 56.5308 28.1745 56.5308 31.4515Z" fill="#AD8B8B"/>
<path d="M57.4041 37.6617C57.4041 35.5135 56.5308 33.6066 56.5308 31.4515C56.5308 28.1745 58.0548 25.7267 60.2666 23.3491C62.3224 21.1391 65.7645 18.9882 68.8784 18.8855C72.3738 18.7703 74.9587 19.6649 77.757 21.7723C81.6543 24.7073 84.9295 28.7067 85.5562 33.7196C85.652 34.4865 85.5683 35.3105 85.5683 36.0849C85.5683 37.291 85.5757 36.531 86.8055 36.57C89.0505 36.6413 91.6035 38.5782 93.2947 39.942C95.5273 41.7425 96.9882 43.7392 97.4671 46.6131C98.2746 51.4581 97.847 56.2025 94.6895 60.1494C93.9847 61.0304 92.4753 61.6822 91.3661 61.8839C90.1928 62.0972 90.148 61.945 91.1356 63.0847C91.7683 63.8147 92.4637 64.4569 93.0885 65.1709C93.6357 65.7963 95.152 67.2168 95.393 68C95.7259 69.0819 97.1065 71.9343 95.9995 72.5C96.659 74.556 95.2918 74.9215 94.5197 76.7908C94.0598 77.9043 93.6268 79.0681 92.6518 79.811C91.4883 80.6974 90.2296 81.3817 88.9524 82.0913C88.5826 82.2967 87.5125 82.3969 87.0966 82.4188C86.2705 82.4622 87.9418 82.402 88.1882 82.4673C89.157 82.7237 90.4964 83.4192 91.4267 83.8379C92.6678 84.3963 93.7076 85.7671 94.5318 86.7974C95.7739 88.35 96.5533 89.4387 97.1396 91.3702C97.9009 93.8778 97.2478 96.4321 95.9995 98.6235C94.6192 101.047 92.2869 103.407 89.6801 104.385C88.303 104.901 87.9608 105.856 86.4416 105.78C84.9224 105.704 83.5405 104.623 82.5 104.385C81.4313 104.141 80.5073 103.897 79.722 103.111C79.5928 102.982 79.6735 103.84 79.6735 103.96C79.6735 105.521 79.5668 106.946 79.1398 108.46C78.6246 110.287 78.2036 112.204 77.1627 113.834C74.2028 118.467 74 118.308 71.5 119C69.9953 119.417 61.2547 120.129 60 119C58.3772 117.539 54.8933 117.5 54.5537 115C51.8602 111.708 52.3019 108.984 52.6494 104.858C52.7934 103.147 53.2283 102.372 54.02 100.964C54.2977 100.471 54.4865 99.9643 54.8933 99.5574C55.3791 99.0717 55.4089 99.23 54.5537 99.23C53.5947 99.23 51.6402 97.3302 50.5 97.5C48.4908 95.7067 48.7616 95.853 47.9675 94.5C47.2845 93.3364 47.0314 92.6597 46.706 91.358C46.1314 89.0595 45.8922 86.3134 46.7303 84.032C47.8315 81.0341 50.1237 77.8339 53.6804 77.8339C54.2614 77.8339 52.1282 76.5225 51.679 76.2571C50.4373 75.5233 49.1808 74.8557 47.9675 74.0738C46.159 72.9083 43.9134 70.067 43.5 68C43.057 65.7849 43.5 63.0847 44.5349 61.8839C44.7138 60.0944 47.2628 58.5679 48.6225 57.7478C50.1113 56.8498 51.3632 56.3247 53.0375 55.9526C54.1489 55.7057 54.9517 55.8579 53.365 55.237C52.0369 54.7173 51.5497 53.8882 50.5 53C49.5855 52.2262 48.4642 51.0751 47.7977 50.0578C46.7686 48.4871 46.2964 47.0035 46.2694 45.0848C46.2249 41.9258 46.004 37.8296 49.0955 35.9272C50.7005 34.9395 53.5069 33.418 55.2208 35.0417C55.9026 35.6876 56.7357 36.0807 57.4041 36.7883C57.5334 36.9253 58.3611 38.0473 58.0591 37.4433" stroke="#827373" stroke-width="3.38899" stroke-linecap="round" stroke-linejoin="round"/>
<path d="M48.0427 47.4113C52.7915 47.4113 57.7833 47.9837 62.3538 47.9837" stroke="#827373" stroke-width="3.38899" stroke-linecap="round" stroke-linejoin="round"/>
<path d="M81.2445 70.3091C85.1653 70.3091 89.345 70.8384 92.6934 69.1642" stroke="#827373" stroke-width="3.38899" stroke-linecap="round" stroke-linejoin="round"/>
<path d="M48.0427 93.2069C50.3439 93.2069 54.6564 93.9332 56.8838 92.9207C58.2308 92.3084 60.874 92.062 62.3538 92.062" stroke="#827373" stroke-width="3.38899" stroke-linecap="round" stroke-linejoin="round"/>
</svg>
