<svg width="145" height="144" viewBox="0 0 145 144" fill="none" xmlns="http://www.w3.org/2000/svg">
<rect width="145" height="144" fill="white"/>
<path d="M28.3765 64.741C30.6947 66.4724 33.4231 67.0812 36.6827 67.2727C36.8716 67.3317 37.0098 67.3785 37.0601 67.4018C38.2594 67.9591 42.0094 67.5784 43.5945 67.5784C44.1843 67.5784 47.8823 67.8998 46.6989 68.5872C45.2495 69.4291 42.5494 69.524 40.6638 69.7978C36.0565 70.4669 31.0035 71.0216 26.5964 72.0172C22.2702 72.9945 9.47738 76.6735 15.6551 80.0626C17.265 80.9458 21.564 80.9522 23.5571 80.9705C26.2619 80.9955 28.971 80.9705 31.6763 80.9705C36.4127 80.9705 40.9911 80.5166 45.7437 80.5166H50.4329C51.5672 80.5166 54.2004 81.266 54.6444 81.8785C55.124 82.5401 51.2404 84.1593 50.4329 84.6023C47.9033 85.9901 44.6684 87.2407 42.8347 89.0159C41.9479 89.8745 40.9728 91.5914 42.4439 92.446C44.6357 93.7191 49.3911 94.4518 52.3433 94.8167C58.9512 95.6334 65.8103 96.3753 72.5326 96.8091C78.695 97.2069 85.224 96.8596 91.4194 96.8596C101.094 96.8596 109.944 95.2375 118.773 93.1395C120.651 92.6932 121.942 92.3508 121.942 91.0588C121.942 90.2825 122.153 89.0759 121.074 88.5115C119.345 87.6078 116.806 87.1347 114.822 86.4687C112.314 85.6271 109.746 85.0755 107.093 84.4762C105.399 84.0935 104.358 84.0243 104.358 82.8999C104.358 82.1375 105.181 81.4225 106.312 81.021C109.354 79.9411 112.303 78.618 115.777 77.9693C118.798 77.4053 122.146 76.4308 125.264 76.4308C129.082 76.4308 128.088 73.5404 127.109 72.1181C126.063 70.5987 123.162 70.6771 121.552 69.5077C120.801 68.9626 115.008 69.3943 113.736 69.3943C109.783 69.3943 105.312 70.0307 101.536 70.7057C98.3992 71.2663 95.4977 70.3098 92.8305 69.6212C90.7424 69.0822 88.6378 68.2014 88.7275 66.847C88.8886 64.4142 91.6315 64.137 94.1982 62.8117C94.8846 62.4572 96.8788 62.2486 96.9335 61.6767C96.9994 60.9878 97.2247 59.9277 96.7381 59.306C96.073 58.456 96.0609 58.0909 94.1982 57.7045C91.6813 57.1823 88.913 56.9787 86.2961 56.7335C82.9944 56.4241 79.5717 56.0291 76.2231 56.0021C72.8176 55.9746 69.447 56.2291 66.085 56.2291C63.43 56.2291 60.8788 56.3479 58.2481 56.4434C54.2185 56.5897 50.2059 57.137 46.1562 57.137C42.5456 57.137 39.1692 58.1914 35.8227 58.8394C33.8447 59.2224 31.1639 59.9376 29.8962 60.9453C28.2637 62.243 26.1633 63.0881 28.3765 64.741Z" fill="#AD8B8B"/>
<path d="M39.8823 67.3514C35.1602 67.3514 31.4158 67.0109 28.3765 64.741C26.1633 63.0881 28.2637 62.243 29.8962 60.9453C31.1639 59.9376 33.8447 59.2224 35.8227 58.8394C39.1692 58.1914 42.5456 57.137 46.1562 57.137C50.2059 57.137 54.2185 56.5897 58.2481 56.4434C60.8788 56.3479 63.43 56.2291 66.085 56.2291C69.447 56.2291 72.8176 55.9746 76.2231 56.0021C79.5717 56.0291 82.9944 56.4241 86.2961 56.7335C88.913 56.9787 91.6813 57.1823 94.1982 57.7045C96.0609 58.0909 96.073 58.456 96.7381 59.306C97.2247 59.9277 96.9994 60.9878 96.9335 61.6767C96.8788 62.2486 94.8846 62.4572 94.1982 62.8117C91.6315 64.137 88.8886 64.4142 88.7275 66.847C88.6378 68.2014 90.7424 69.0822 92.8305 69.6212C95.4977 70.3098 98.3992 71.2663 101.536 70.7057C105.312 70.0307 109.783 69.3943 113.736 69.3943C115.008 69.3943 120.801 68.9626 121.552 69.5077C123.162 70.6771 126.063 70.5987 127.109 72.1181C128.088 73.5404 129.082 76.4308 125.264 76.4308C122.146 76.4308 118.798 77.4053 115.777 77.9693C112.303 78.618 109.354 79.9411 106.312 81.021C105.181 81.4225 104.358 82.1375 104.358 82.8999C104.358 84.0243 105.399 84.0935 107.093 84.4762C109.746 85.0755 112.314 85.6271 114.822 86.4687C116.806 87.1347 119.345 87.6078 121.074 88.5115C122.153 89.0759 121.942 90.2825 121.942 91.0588C121.942 92.3508 120.651 92.6932 118.773 93.1395C109.944 95.2375 101.094 96.8596 91.4194 96.8596C85.224 96.8596 78.695 97.2069 72.5326 96.8091C65.8103 96.3753 58.9512 95.6334 52.3432 94.8167C49.3911 94.4518 44.6357 93.7191 42.4439 92.446C40.9728 91.5914 41.9479 89.8745 42.8347 89.0159C44.6684 87.2407 47.9033 85.9901 50.4329 84.6023C51.2404 84.1593 55.124 82.5401 54.6444 81.8785C54.2004 81.266 51.5672 80.5166 50.4329 80.5166C48.8698 80.5166 47.3068 80.5166 45.7437 80.5166C40.9911 80.5166 36.4127 80.9705 31.6763 80.9705C28.971 80.9705 26.2619 80.9955 23.5571 80.9705C21.564 80.9522 17.265 80.9458 15.6551 80.0626C9.47738 76.6735 22.2702 72.9945 26.5964 72.0172C31.0035 71.0216 36.0565 70.4669 40.6638 69.7978C42.5494 69.524 45.2495 69.4291 46.6989 68.5872C47.8823 67.8998 44.1843 67.5784 43.5945 67.5784C42.0094 67.5784 38.2594 67.9591 37.0601 67.4018C36.8264 67.2932 34.6925 66.68 34.4116 66.6704C33.2844 66.6319 32.635 66.2164 31.6763 66.2164" stroke="#827373" stroke-width="3.38899" stroke-linecap="round" stroke-linejoin="round"/>
</svg>
